<svg xmlns="http://www.w3.org/2000/svg" xmlns:svg="http://www.w3.org/2000/svg" id="svg2" width="400.381" height="400" version="1.1"><metadata id="metadata7"/><g id="layer1" transform="translate(-3.961793e-8,-652.36219)"><path id="path3760" d="m 200,654.58171 c -109.232735,0 -197.7804751,88.54774 -197.7804751,197.78047 0,109.23274 88.5477401,197.78052 197.7804751,197.78052 109.23274,0 197.78048,-88.54778 197.78048,-197.78052 0,-109.23273 -88.54774,-197.78047 -197.78048,-197.78047 z m 0,45.4309 c 84.14073,0 152.34957,68.20886 152.34957,152.34957 0,84.14072 -68.20884,152.34962 -152.34957,152.34962 -84.14073,0 -152.349565,-68.2089 -152.349565,-152.34962 0,-84.14071 68.208835,-152.34957 152.349565,-152.34957 z" style="fill:none;stroke:#000;stroke-width:2;stroke-linecap:round;stroke-linejoin:round;stroke-miterlimit:4;stroke-opacity:.98941805999999999;stroke-dasharray:6,6;stroke-dashoffset:0"/><path style="fill:none;stroke:red;stroke-width:.80000000999999998;stroke-linecap:round;stroke-linejoin:round;stroke-miterlimit:4;stroke-opacity:.98941809;stroke-dasharray:none;stroke-dashoffset:0;fill-opacity:1" id="path3816" d="m 203.35755,205.5157 23.02638,22.30126 C 231.32202,221.64835 234,214.08017 234,205.5625 c 0,-8.59919 -2.1192,-15.98903 -7.14737,-22.18242 z" transform="translate(3.961793e-8,652.36219)"/><path style="fill:#f60;stroke:#510000;stroke-width:1;stroke-linecap:round;stroke-linejoin:round;stroke-miterlimit:4;stroke-opacity:.98941809000000003;stroke-dasharray:none;stroke-dashoffset:0;opacity:.9" id="path3793" d="m 348.16169,721.04848 -32.2187,32.21875 30.6747,56.53427 0.0416,85.61489 -37.43503,63.69459 32.125,32.12505 45.85224,-78.26117 0.45585,-124.42423 -39.49569,-67.50215 z"/><path style="fill:none;stroke:#00f;stroke-width:2;stroke-linecap:butt;stroke-linejoin:miter;stroke-miterlimit:4;stroke-opacity:1;stroke-dasharray:none" id="path3810" d="M 327.1379,976.60074 203.23804,857.90519 334.56252,734.6187"/><text style="font-size:17.606880189999998px;font-style:normal;font-weight:400;line-height:125%;letter-spacing:0;word-spacing:0;fill:#00f;fill-opacity:1;stroke:none;font-family:Sans" id="text3812" x="-405.283" y="750.487" transform="matrix(0.71257458,-0.70159637,0.70159637,0.71257458,0,0)" xml:space="preserve"><tspan id="tspan3814" x="-405.283" y="750.487">radius</tspan></text><text id="text3824" x="183.474" y="852.484" transform="matrix(0.99996987,0.00776277,-0.00776277,0.99996987,0,0)" xml:space="preserve" style="font-size:15.954487800000001px;font-style:normal;font-variant:normal;font-weight:400;font-stretch:normal;text-align:center;line-height:100%;letter-spacing:0;word-spacing:0;writing-mode:lr-tb;text-anchor:middle;fill:red;fill-opacity:1;stroke:none;font-family:Sans;-inkscape-font-specification:Sans"><tspan id="tspan3826" x="183.474" y="852.484">sector</tspan><tspan id="tspan3828" x="183.474" y="868.439">angle</tspan></text><text style="font-size:17.606880189999998px;font-style:normal;font-weight:400;line-height:125%;letter-spacing:0;word-spacing:0;fill:#f60;fill-opacity:1;stroke:none;font-family:Sans" id="text3812-2" x="902.13" y="470.788" transform="matrix(0.70159637,0.71257458,-0.71257458,0.70159637,0,0)" xml:space="preserve"><tspan id="tspan3814-0" x="902.13" y="470.788">width</tspan></text><path style="fill:none;fill-opacity:1;fill-rule:nonzero;stroke:navy;stroke-width:1.03857124;stroke-linecap:round;stroke-linejoin:round;stroke-miterlimit:4;stroke-opacity:1;stroke-dasharray:none;stroke-dashoffset:0" id="path3851" d="m 309.82914,62.10878 -10.86718,-6.171405 -6.32555,10.778184 6.1714,-10.867181 -10.77818,-6.325551 10.86718,6.171406 6.32555,-10.778185 -6.17141,10.867181 z" transform="matrix(0.83386233,-0.48143064,0.48143064,0.83386233,58.13512,832.26175)"/><path id="path3853" d="m 309.82914,62.10878 -10.86718,-6.171405 -6.32555,10.778184 6.1714,-10.867181 -10.77818,-6.325551 10.86718,6.171406 6.32555,-10.778185 -6.17141,10.867181 z" transform="matrix(0.83386233,-0.48143064,0.48143064,0.83386233,51.13512,1074.2617)" style="fill:none;stroke:navy;stroke-width:1.03857124;stroke-linecap:round;stroke-linejoin:round;stroke-miterlimit:4;stroke-opacity:1;stroke-dasharray:none;stroke-dashoffset:0"/><path style="fill:none;stroke:green;stroke-width:1px;stroke-linecap:butt;stroke-linejoin:miter;stroke-opacity:1" id="path3855" d="m 326,201.52516 16.4421,-0.25986 c 0,0 1.98468,45.76717 -36.84375,94.90625" transform="translate(3.961793e-8,652.36219)"/><text id="text3824-8" x="323.759" y="859.345" transform="matrix(0.99996987,0.00776277,-0.00776277,0.99996987,0,0)" xml:space="preserve" style="font-size:15.954487800000001px;font-style:normal;font-variant:normal;font-weight:400;font-stretch:normal;text-align:center;line-height:100%;letter-spacing:0;word-spacing:0;writing-mode:lr-tb;text-anchor:middle;fill:green;fill-opacity:1;stroke:none;font-family:Sans;-inkscape-font-specification:Sans"><tspan id="tspan3828-7" x="323.759" y="859.345">0°</tspan></text><text id="text3824-8-1" x="294.608" y="958.554" transform="matrix(0.99996987,0.00776277,-0.00776277,0.99996987,0,0)" xml:space="preserve" style="font-size:15.954487800000001px;font-style:normal;font-variant:normal;font-weight:400;font-stretch:normal;text-align:center;line-height:100%;letter-spacing:0;word-spacing:0;writing-mode:lr-tb;text-anchor:middle;fill:green;fill-opacity:1;stroke:none;font-family:Sans;-inkscape-font-specification:Sans"><tspan id="tspan3828-7-8" x="294.608" y="958.554">45°</tspan></text><text id="text3824-2" x="324.158" y="840.76" transform="matrix(0.99996987,0.00776277,-0.00776277,0.99996987,0,0)" xml:space="preserve" style="font-size:15.954487800000001px;font-style:normal;font-variant:normal;font-weight:400;font-stretch:normal;text-align:center;line-height:100%;letter-spacing:0;word-spacing:0;writing-mode:lr-tb;text-anchor:middle;fill:green;fill-opacity:1;stroke:none;font-family:Sans;-inkscape-font-specification:Sans"><tspan id="tspan3828-9" x="324.158" y="840.76">rotation</tspan></text><text id="text3824-8-6" x="228.25" y="860.496" transform="matrix(0.99996987,0.00776277,-0.00776277,0.99996987,0,0)" xml:space="preserve" style="font-size:12.607131px;font-style:normal;font-variant:normal;font-weight:400;font-stretch:normal;text-align:center;line-height:100%;letter-spacing:0;word-spacing:0;writing-mode:lr-tb;text-anchor:middle;fill:red;fill-opacity:1;stroke:none;font-family:Sans;-inkscape-font-specification:Sans"><tspan id="tspan3828-7-3" x="228.25" y="860.496">90°</tspan></text><path id="path3953" d="m 309.82914,62.10878 -10.86718,-6.171405 -6.32555,10.778184 6.1714,-10.867181 -10.77818,-6.325551 10.86718,6.171406 6.32555,-10.778185 -6.17141,10.867181 z" transform="matrix(0.93005258,0.24920684,-0.24920684,0.93005258,111.70552,727.68219)" style="fill:none;stroke:#000;stroke-width:1.03857124;stroke-linecap:round;stroke-linejoin:round;stroke-miterlimit:4;stroke-opacity:1;stroke-dasharray:none;stroke-dashoffset:0"/><path style="fill:none;stroke:#5c0000;stroke-width:1;stroke-linecap:butt;stroke-linejoin:miter;stroke-opacity:1;stroke-miterlimit:4;stroke-dasharray:1,1;stroke-dashoffset:0" id="path4003" d="m 346.5,157.37503 41,-21.375" transform="translate(3.961793e-8,652.36219)"/><path style="fill:none;stroke:#5c0000;stroke-width:1;stroke-linecap:butt;stroke-linejoin:miter;stroke-miterlimit:4;stroke-opacity:1;stroke-dasharray:1,1;stroke-dashoffset:0" id="path4003-5" d="m 346.75,895.04972 39.875,17.75"/><text style="font-size:17.60688019px;font-style:normal;font-weight:400;line-height:125%;letter-spacing:0;word-spacing:0;fill:maroon;fill-opacity:1;stroke:none;font-family:Sans" id="text3812-4" x="151.408" y="684.405" transform="matrix(0.99996987,0.00776277,-0.00776277,0.99996987,0,0)" xml:space="preserve"><tspan id="tspan3814-01" x="151.408" y="684.405">4 curve points</tspan></text></g></svg>