<svg xmlns="http://www.w3.org/2000/svg" xmlns:svg="http://www.w3.org/2000/svg" xmlns:xlink="http://www.w3.org/1999/xlink" id="svg2" width="128" height="128" version="1.0"><defs id="defs4"><linearGradient id="linearGradient3290"><stop style="stop-color:yellow;stop-opacity:1" id="stop3292" offset="0"/><stop style="stop-color:#ffb66d;stop-opacity:1" id="stop3294" offset="1"/></linearGradient><linearGradient id="linearGradient3765"><stop style="stop-color:#fff;stop-opacity:1" id="stop3767" offset="0"/><stop style="stop-color:#fff;stop-opacity:0" id="stop3769" offset="1"/></linearGradient><linearGradient id="linearGradient3747"><stop style="stop-color:#fff;stop-opacity:1" id="stop3749" offset="0"/><stop style="stop-color:#fff;stop-opacity:0" id="stop3751" offset="1"/></linearGradient><linearGradient id="linearGradient3638"><stop style="stop-color:#fff;stop-opacity:0" id="stop3640" offset="0"/><stop id="stop3661" offset=".069" style="stop-color:#fff;stop-opacity:1"/><stop id="stop3659" offset=".5" style="stop-color:#fff;stop-opacity:1"/><stop style="stop-color:#fff;stop-opacity:0" id="stop3642" offset="1"/></linearGradient><linearGradient id="linearGradient1563"><stop id="stop1565" offset="0" style="stop-color:#fff;stop-opacity:1"/><stop id="stop1567" offset="1" style="stop-color:white;stop-opacity:0"/></linearGradient><linearGradient id="linearGradient3273"><stop id="stop3275" offset="0" style="stop-color:#fff;stop-opacity:.55035973"/><stop id="stop3277" offset="1" style="stop-color:#fff;stop-opacity:0"/></linearGradient><linearGradient id="linearGradient3291"><stop id="stop3293" offset="0" style="stop-color:#000;stop-opacity:1"/><stop id="stop3295" offset="1" style="stop-color:#000;stop-opacity:0"/></linearGradient><linearGradient id="linearGradient12948"><stop style="stop-color:#fff;stop-opacity:1" id="stop12950" offset="0"/><stop style="stop-color:silver;stop-opacity:0" id="stop12952" offset="1"/></linearGradient><linearGradient id="linearGradient3605" x1="80.1" x2="77.715" y1="44.808" y2="101.473" gradientTransform="matrix(0.959962,0,0,0.959962,2.35549,3.275418)" gradientUnits="userSpaceOnUse" spreadMethod="reflect" xlink:href="#linearGradient3273"/><linearGradient id="linearGradient3644" x1="57.287" x2="144.253" y1="1.16" y2="16.877" gradientUnits="userSpaceOnUse" xlink:href="#linearGradient3638"/><linearGradient id="linearGradient3646" x1="57.287" x2="144.253" y1="1.16" y2="16.877" gradientUnits="userSpaceOnUse" xlink:href="#linearGradient3638"/><linearGradient id="linearGradient3648" x1="57.287" x2="144.253" y1="1.16" y2="16.877" gradientUnits="userSpaceOnUse" xlink:href="#linearGradient3638"/><radialGradient id="radialGradient3716" cx="23.19" cy="59.379" r="2.108" fx="22.471" fy="59.355" gradientTransform="matrix(1,-7.045514e-15,1.946707e-15,0.941176,2.788953e-13,3.492906)" gradientUnits="userSpaceOnUse" xlink:href="#linearGradient12948"/><linearGradient id="linearGradient3732" x1="98.292" x2="44.243" y1="-126.75" y2="101.457" gradientUnits="userSpaceOnUse" xlink:href="#linearGradient1563"/><linearGradient id="linearGradient3739" x1="98.292" x2="44.243" y1="-44.015" y2="101.457" gradientUnits="userSpaceOnUse" xlink:href="#linearGradient1563"/><radialGradient id="radialGradient3743" cx="63.912" cy="115.709" r="63.912" fx="63.975" fy="116.885" gradientTransform="matrix(1,0,0,0.197802,6.834814e-15,92.82166)" gradientUnits="userSpaceOnUse" xlink:href="#linearGradient3291"/><radialGradient id="radialGradient3753" cx="5.753" cy="-45.416" r="124.103" fx="74.817" fy="-43.169" gradientTransform="matrix(1,-5.290907e-17,-3.962245e-18,9.492274e-2,9.333694e-14,-41.10492)" gradientUnits="userSpaceOnUse" xlink:href="#linearGradient3747"/><radialGradient id="radialGradient3757" cx="5.753" cy="-45.416" r="124.103" fx="74.817" fy="-43.169" gradientTransform="matrix(1,-1.087455e-16,-5.565153e-18,9.492274e-2,-1.420331e-15,-41.10492)" gradientUnits="userSpaceOnUse" xlink:href="#linearGradient3747"/><radialGradient id="radialGradient3761" cx="5.753" cy="-45.416" r="124.103" fx="74.817" fy="-43.169" gradientTransform="matrix(1,-1.302059e-16,-7.897474e-18,9.492274e-2,1.345372e-13,-41.10492)" gradientUnits="userSpaceOnUse" xlink:href="#linearGradient3747"/><radialGradient id="radialGradient3771" cx="23.663" cy="95.899" r="2.794" fx="24.261" fy="96.779" gradientTransform="matrix(1.484142,0.129521,-0.489782,5.61225,35.51325,-445.3727)" gradientUnits="userSpaceOnUse" xlink:href="#linearGradient3765"/><linearGradient id="linearGradient3106" x1="84.635" x2="89.725" y1="116.101" y2="-15.337" gradientUnits="userSpaceOnUse" xlink:href="#linearGradient3290"/><radialGradient id="radialGradient5079" cx="80.739" cy="155.372" r="64.797" fx="80.739" fy="177.297" gradientTransform="matrix(1,0,0,0.111111,0,138.1081)" gradientUnits="userSpaceOnUse" xlink:href="#linearGradient5073"/><linearGradient id="linearGradient5073"><stop id="stop5075" offset="0" style="stop-color:#000;stop-opacity:1"/><stop id="stop5077" offset="1" style="stop-color:#000;stop-opacity:0"/></linearGradient><linearGradient id="XMLID_1_" x1="95.693" x2="32.309" y1="141.174" y2="77.789" gradientUnits="userSpaceOnUse"><stop style="stop-color:#75511a" id="stop7227" offset="0"/><stop style="stop-color:#563a11" id="stop7229" offset=".399"/><stop style="stop-color:#402b0b" id="stop7231" offset=".764"/><stop style="stop-color:#382509" id="stop7233" offset="1"/></linearGradient><linearGradient id="XMLID_3_" x1="63.999" x2="63.999" y1="92.865" y2="120.865" gradientTransform="translate(175.0067,11.74752)" gradientUnits="userSpaceOnUse"><stop style="stop-color:#888a85" id="stop7261" offset="0"/><stop style="stop-color:#a6a7a3" id="stop7263" offset=".323"/><stop style="stop-color:#eeeeec" id="stop7265" offset="1"/></linearGradient><linearGradient id="XMLID_4_" x1="64.001" x2="64.001" y1="108.865" y2="92.865" gradientUnits="userSpaceOnUse"><stop style="stop-color:#eeeeec" id="stop7270" offset="0"/><stop style="stop-color:#fff" id="stop7272" offset="1"/></linearGradient><linearGradient id="linearGradient2931" x1="22.555" x2="22.696" y1="45.886" y2="49.904" gradientTransform="matrix(0.411726,-5.152275e-4,5.035177e-4,0.402369,6.679269,76.24703)" gradientUnits="userSpaceOnUse" xlink:href="#linearGradient3394"/><linearGradient id="linearGradient2929" x1="80.281" x2="73.233" y1="15.789" y2="16.917" gradientUnits="userSpaceOnUse" xlink:href="#linearGradient3354"/><linearGradient id="linearGradient2927" x1="64.493" x2="64.141" y1="2.609" y2="9.023" gradientUnits="userSpaceOnUse" xlink:href="#linearGradient3354"/><linearGradient id="linearGradient2925" x1="67.97" x2="67.959" y1="1.922" y2="10.468" gradientTransform="matrix(0.420708,-4.935415e-4,5.371083e-4,0.402369,5.522596,76.24595)" gradientUnits="userSpaceOnUse" xlink:href="#linearGradient3354"/><radialGradient id="radialGradient2923" cx="205.047" cy="56.302" r="54.003" fx="205.047" fy="56.302" gradientTransform="matrix(0.158774,-5.430961e-7,0,0.134039,13.20757,101.2996)" gradientUnits="userSpaceOnUse" xlink:href="#linearGradient3415"/><radialGradient id="radialGradient2921" cx="31.21" cy="64.029" r="54.003" fx="31.21" fy="64.029" gradientTransform="matrix(0.158774,-4.618111e-7,0,0.113975,13.17565,101.4187)" gradientUnits="userSpaceOnUse" xlink:href="#linearGradient3415"/><linearGradient id="linearGradient2919" x1="60.466" x2="69.813" y1="135.66" y2="76.248" gradientTransform="matrix(0.410124,-5.13222e-4,5.129803e-4,0.409703,6.17377,75.53269)" gradientUnits="userSpaceOnUse" xlink:href="#linearGradient3415"/><linearGradient id="linearGradient2917" x1="66.027" x2="71.149" y1="50.512" y2="74.557" gradientTransform="matrix(0.402369,-5.035175e-4,5.054135e-4,0.403884,7.146914,76.06653)" gradientUnits="userSpaceOnUse" xlink:href="#linearGradient3262"/><linearGradient id="linearGradient2915" x1="68.017" x2="71.87" y1="49.921" y2="82.321" gradientTransform="matrix(0.410124,-5.13222e-4,5.129803e-4,0.409703,6.187573,75.31867)" gradientUnits="userSpaceOnUse" xlink:href="#linearGradient3262"/><radialGradient id="radialGradient2913" cx="63.645" cy="44.872" r="52.844" fx="63.645" fy="-6.057" gradientTransform="matrix(0.289107,3.299236e-3,-4.171194e-3,0.365561,14.10049,75.50046)" gradientUnits="userSpaceOnUse" xlink:href="#linearGradient3281"/><linearGradient id="linearGradient3415"><stop id="stop3417" offset="0" style="stop-color:#fff;stop-opacity:1"/><stop id="stop3419" offset="1" style="stop-color:#fff;stop-opacity:0"/></linearGradient><linearGradient id="linearGradient3394"><stop id="stop3396" offset="0" style="stop-color:#fff;stop-opacity:1"/><stop id="stop3398" offset="1" style="stop-color:#fff;stop-opacity:0"/></linearGradient><linearGradient id="linearGradient3354"><stop id="stop3356" offset="0" style="stop-color:#fff;stop-opacity:1"/><stop id="stop3358" offset="1" style="stop-color:#fff;stop-opacity:0"/></linearGradient><linearGradient id="linearGradient3281"><stop id="stop3283" offset="0" style="stop-color:#fff;stop-opacity:.53597122"/><stop id="stop3285" offset=".12" style="stop-color:#fff;stop-opacity:.49803922"/><stop id="stop3287" offset="1" style="stop-color:#fff;stop-opacity:0"/></linearGradient><linearGradient id="linearGradient3262"><stop id="stop3264" offset="0" style="stop-color:#fff;stop-opacity:.46402878"/><stop id="stop3270" offset="0" style="stop-color:#fff;stop-opacity:.49803922"/><stop id="stop3266" offset="1" style="stop-color:#fff;stop-opacity:0"/></linearGradient><radialGradient id="radialGradient3297" cx="63.912" cy="115.709" r="63.912" fx="64.053" fy="128.713" gradientTransform="matrix(0.917177,0,0,8.241757e-2,5.29343,113.5472)" gradientUnits="userSpaceOnUse" xlink:href="#linearGradient3291"/><linearGradient id="linearGradient2004"><stop id="stop2006" offset="0" style="stop-color:#000;stop-opacity:1"/><stop id="stop2008" offset="1" style="stop-color:#000;stop-opacity:0"/></linearGradient><linearGradient id="linearGradient1976" x1="-70.003" x2="-11.916" y1="-383.997" y2="-383.997" gradientTransform="matrix(0,1,-1,0,-39.9985,140.0029)" gradientUnits="userSpaceOnUse" xlink:href="#linearGradient26907"/><linearGradient id="linearGradient26907" x1="-84.002" x2="-12.003" y1="-383.997" y2="-383.997" gradientTransform="matrix(0,1,-1,0,-39.9985,140.0029)" gradientUnits="userSpaceOnUse"><stop style="stop-color:#e20800;stop-opacity:1" id="stop26909" offset="0"/><stop style="stop-color:#9c0f0f;stop-opacity:1" id="stop26911" offset="1"/></linearGradient><radialGradient id="radialGradient1978" cx="343.999" cy="92" r="36" fx="343.999" fy="92" gradientUnits="userSpaceOnUse" xlink:href="#linearGradient3711"/><linearGradient id="linearGradient3711" x1="-84.002" x2="-23.516" y1="-383.997" y2="-383.998" gradientTransform="matrix(0,1,-1,0,-39.9985,140.0029)" gradientUnits="userSpaceOnUse"><stop id="stop3713" offset="0" style="stop-color:white;stop-opacity:1"/><stop id="stop3715" offset="1" style="stop-color:white;stop-opacity:0"/></linearGradient><linearGradient id="linearGradient8724" x1="-88.058" x2="-45.097" y1="-131.931" y2="-131.931" gradientTransform="matrix(0,1.591298,-1.591298,0,-146.04887,141.48618)" gradientUnits="userSpaceOnUse" xlink:href="#linearGradient3711"/><linearGradient id="linearGradient3060" x1="-84.002" x2="-23.516" y1="-383.997" y2="-383.998" gradientTransform="matrix(0,1,-1,0,-39.9985,140.0029)" gradientUnits="userSpaceOnUse"><stop id="stop3062" offset="0" style="stop-color:white;stop-opacity:1"/><stop id="stop3064" offset="1" style="stop-color:white;stop-opacity:0"/></linearGradient></defs><metadata id="metadata7"/><g id="layer1"><path id="path3574" d="M 153.09403,94.713757 C 144.53658,107.09689 92.616372,93.013297 78.414631,98.001518 C 64.21289,102.98974 32.50348,146.4474 18.082028,142.13539 C 3.6605746,137.82337 1.0106378,84.092245 -8.1220219,72.127031 C -17.254681,60.161818 -68.384124,43.433534 -68.739625,28.385431 C -69.095125,13.337327 -18.812666,-5.7867426 -10.255219,-18.169872 C -1.697772,-30.553002 -1.5880954,-84.349316 12.613645,-89.337536 C 26.815387,-94.325757 60.541592,-52.41396 74.963045,-48.101941 C 89.384498,-43.789923 140.58172,-60.30959 149.71438,-48.344376 C 158.84704,-36.379162 129.40853,8.6478227 129.76403,23.695927 C 130.11953,38.74403 161.65148,82.330628 153.09403,94.713757 z" transform="matrix(0.511285,0.187762,-0.187762,0.511285,41.72321,44.08266)" style="opacity:1;fill:#e3ad00;fill-opacity:1;fill-rule:nonzero;stroke:none;stroke-width:14.80892919;stroke-linecap:round;stroke-linejoin:round;stroke-miterlimit:4;stroke-dasharray:none;stroke-dashoffset:4;stroke-opacity:1"/><path style="opacity:1;fill:url(#linearGradient3106);fill-opacity:1;fill-rule:nonzero;stroke:url(#linearGradient3605);stroke-width:6.803;stroke-linecap:round;stroke-linejoin:round;stroke-miterlimit:4;stroke-dasharray:none;stroke-dashoffset:4;stroke-opacity:1" id="path3580" d="M 64.817613,10.159328 C 64.581604,10.317484 63.312654,10.957094 61.843149,12.708869 C 60.101516,14.785047 58.138879,17.917081 56.177505,21.235666 C 54.216128,24.55425 52.251443,28.092247 50.341888,31.150546 C 48.432331,34.208845 46.806952,36.762169 44.279648,38.544213 C 41.752344,40.326257 38.764915,41.002069 35.242943,41.773631 C 31.720971,42.545192 27.75285,43.193621 23.968308,43.926576 C 20.183765,44.659533 16.5656,45.476237 14.025101,46.419462 C 11.841858,47.230044 10.829167,48.201295 10.625712,48.345781 C 10.626839,48.347738 10.624524,48.371367 10.625712,48.374108 C 10.696321,48.571093 10.870285,49.989399 12.127109,52.000123 C 13.563478,54.298089 15.950898,57.154462 18.50096,60.045339 C 21.051023,62.936217 23.774397,65.867627 26.092925,68.628793 C 28.411454,71.389955 30.363146,73.748045 31.27699,76.702337 C 32.190833,79.656627 31.914822,82.68926 31.560274,86.277278 C 31.205724,89.8653 30.616267,93.839413 30.143862,97.665227 C 30.113483,97.911252 30.08362,98.156728 30.054361,98.401429 C 29.628627,101.96194 29.330856,105.3582 29.435657,107.89172 C 29.533657,110.26089 30.173974,111.54076 30.228847,111.74436 C 30.438123,111.73798 31.837454,111.97838 34.138142,111.40442 C 36.7675,110.74847 40.20401,109.39531 43.741411,107.86339 C 47.278812,106.33148 50.937026,104.62602 54.279513,103.27421 C 57.621999,101.9224 60.450754,100.79418 63.542844,100.838 C 66.634933,100.8818 69.418339,102.08321 72.721189,103.52916 C 76.024038,104.97512 79.653393,106.79843 83.145977,108.42996 C 86.638561,110.06147 90.026215,111.49575 92.635935,112.22595 C 94.919441,112.86485 96.334003,112.66799 96.54523,112.67918 C 96.605258,112.47676 97.286649,111.22034 97.451733,108.85487 C 97.640395,106.1515 97.418963,102.46604 97.055137,98.628384 C 96.691312,94.790732 96.174767,90.780408 95.922008,87.183781 C 95.669251,83.587159 95.491404,80.56438 96.488573,77.637169 C 97.485753,74.709955 99.503438,72.399636 101.89927,69.705264 C 104.29508,67.010894 107.11524,64.16591 109.74619,61.348436 C 112.37711,58.530963 114.78913,55.729544 116.29001,53.47319 C 117.57984,51.534136 117.84976,50.137859 117.93304,49.903833 C 117.93436,49.901119 117.93183,49.877435 117.93304,49.875506 C 117.7318,49.725835 116.72138,48.73631 114.56198,47.864201 C 112.04922,46.849382 108.49434,45.927914 104.73209,45.088035 C 100.96983,44.248155 97.012813,43.466178 93.514108,42.595149 C 90.015409,41.724119 87.038194,40.992031 84.562389,39.139105 C 82.086586,37.286179 80.548923,34.65831 78.726774,31.54714 C 76.904626,28.435971 75.041014,24.863438 73.174441,21.49062 C 71.307869,18.117801 69.417536,14.946869 67.735421,12.822182 C 66.263569,10.963081 64.982527,10.293346 64.817613,10.159328 z"/><path id="path2276" d="M -106.3852,44.124126 L -106.3852,41.329417 L -106.3852,44.124126 z" style="fill:#fff;fill-opacity:.75688076;fill-rule:nonzero;stroke:none;stroke-width:.5;stroke-linecap:round;stroke-linejoin:round;stroke-miterlimit:4;stroke-dasharray:none;stroke-dashoffset:4;stroke-opacity:1"/><path style="opacity:.38139535;fill:url(#radialGradient3743);fill-opacity:1;fill-rule:nonzero;stroke:none;stroke-width:0;stroke-linecap:round;stroke-linejoin:round;stroke-miterlimit:4;stroke-dasharray:none;stroke-dashoffset:4;stroke-opacity:1" id="path3289" d="M 127.82442 115.70919 A 63.912209 12.641975 0 1 1 0,115.70919 A 63.912209 12.641975 0 1 1 127.82442 115.70919 z" transform="matrix(-0.975103,0,0,0.416667,126.6744,75.1684)"/><path style="fill:none;fill-opacity:1;fill-rule:evenodd;stroke:url(#linearGradient3648);stroke-width:.50672567;stroke-linecap:butt;stroke-linejoin:miter;stroke-miterlimit:4;stroke-dasharray:none;stroke-opacity:.5813008" id="path3632" d="M 55.266721,10.739701 C 56.520212,8.5685899 61.220699,1.3579337 65.008418,1.4134271 C 71.889436,1.5172832 83.511202,31.129589 88.946059,34.460427 C 95.635958,38.560436 119.92387,41.46414 124.34296,44.969282"/><path id="path3634" d="M 55.236135,11.274949 C 56.489626,9.1038383 61.236542,1.57297 65.023711,1.6581121 C 71.830955,1.8111507 83.271335,31.483209 88.869595,34.705112 C 95.670099,38.618929 119.98852,41.765855 124.40761,45.270997" style="fill:none;fill-opacity:1;fill-rule:evenodd;stroke:url(#linearGradient3646);stroke-width:1;stroke-linecap:round;stroke-linejoin:round;stroke-miterlimit:4;stroke-dasharray:none;stroke-opacity:.43089432"/><path style="fill:none;fill-opacity:1;fill-rule:evenodd;stroke:url(#linearGradient3644);stroke-width:2;stroke-linecap:round;stroke-linejoin:round;stroke-miterlimit:4;stroke-dasharray:none;stroke-opacity:.43089432" id="path3636" d="M 55.205632,12.312054 C 56.459123,10.140944 61.420826,2.0361374 65.023711,2.1461616 C 71.282863,2.3391656 83.42385,32.459308 88.778086,35.193162 C 95.766183,38.761259 121.08663,42.680948 124.71264,46.094581"/><path style="opacity:.70232556;fill:url(#radialGradient3716);fill-opacity:1;fill-rule:nonzero;stroke:none;stroke-width:.89999998;stroke-linecap:round;stroke-linejoin:round;stroke-miterlimit:4;stroke-dasharray:none;stroke-dashoffset:4;stroke-opacity:1" id="path11160" d="M 25.298673 59.379417 A 2.1082227 1.9842097 0 1 1 21.082228,59.379417 A 2.1082227 1.9842097 0 1 1 25.298673 59.379417 z" transform="matrix(-1.742936,-1.063485,-0.470527,1.244278,191.1539,-3.699137)"/><path style="opacity:1;fill:url(#linearGradient3732);fill-opacity:1;fill-rule:nonzero;stroke:none;stroke-width:6.803;stroke-linecap:round;stroke-linejoin:round;stroke-miterlimit:4;stroke-dasharray:none;stroke-dashoffset:4;stroke-opacity:1" id="path3718" d="M 64.8125 10.15625 C 64.576492 10.314406 63.313255 10.966975 61.84375 12.71875 C 60.102119 14.794928 58.148874 17.931415 56.1875 21.25 C 54.226123 24.568584 52.253305 28.097951 50.34375 31.15625 C 48.434193 34.21455 46.808554 36.749206 44.28125 38.53125 C 41.753946 40.313295 38.771972 41.009688 35.25 41.78125 C 31.728028 42.55281 27.753292 43.204545 23.96875 43.9375 C 20.184208 44.670458 16.571749 45.463025 14.03125 46.40625 C 11.848007 47.216834 10.828455 48.199264 10.625 48.34375 C 10.62496 48.346283 10.625145 48.371753 10.625 48.375 C 10.695609 48.571986 10.868176 49.989276 12.125 52 C 13.561369 54.297967 15.949938 57.140373 18.5 60.03125 C 20.422509 62.210702 22.440722 64.427292 24.3125 66.5625 C 47.187815 68.967477 71.532076 77.450485 95.75 81.53125 C 95.830132 80.186335 96.067405 78.894893 96.5 77.625 C 97.497182 74.697786 99.510418 72.413122 101.90625 69.71875 C 104.30206 67.024383 107.11905 64.161224 109.75 61.34375 C 112.38092 58.526279 114.78037 55.725104 116.28125 53.46875 C 117.57108 51.529696 117.85422 50.140276 117.9375 49.90625 C 117.93747 49.903618 117.93766 49.878251 117.9375 49.875 C 117.73626 49.725328 116.7219 48.747109 114.5625 47.875 C 112.04974 46.860181 108.481 45.933629 104.71875 45.09375 C 100.95649 44.253869 96.998705 43.464779 93.5 42.59375 C 90.001302 41.722719 87.038305 40.977926 84.5625 39.125 C 82.0867 37.272072 80.540899 34.67367 78.71875 31.5625 C 76.8966 28.451331 75.054073 24.872818 73.1875 21.5 C 71.320931 18.127181 69.432115 14.937187 67.75 12.8125 C 66.278149 10.953399 64.977414 10.290268 64.8125 10.15625 z"/><path style="opacity:.41393443;fill:url(#linearGradient3739);fill-opacity:1;fill-rule:nonzero;stroke:none;stroke-width:6.803;stroke-linecap:round;stroke-linejoin:round;stroke-miterlimit:4;stroke-dasharray:none;stroke-dashoffset:4;stroke-opacity:1" id="path3736" d="M 64.8125 10.15625 C 64.576492 10.314406 63.313255 10.966975 61.84375 12.71875 C 60.102119 14.794928 58.148874 17.931415 56.1875 21.25 C 54.226123 24.568584 52.253305 28.097951 50.34375 31.15625 C 48.434193 34.21455 46.808554 36.749206 44.28125 38.53125 C 41.753946 40.313295 38.771972 41.009688 35.25 41.78125 C 31.728028 42.55281 27.753292 43.204545 23.96875 43.9375 C 20.184208 44.670458 16.571749 45.463025 14.03125 46.40625 C 11.848007 47.216834 10.828455 48.199264 10.625 48.34375 C 10.62496 48.346283 10.625145 48.371753 10.625 48.375 C 10.695609 48.571986 10.868176 49.989276 12.125 52 C 13.561369 54.297967 15.949938 57.140373 18.5 60.03125 C 20.422509 62.210702 22.440722 64.427292 24.3125 66.5625 C 25.752576 66.713901 27.204929 66.896788 28.65625 67.09375 C 42.328845 56.623879 60.733777 43.188439 78.53125 31.25 C 76.771363 28.21678 74.98888 24.755017 73.1875 21.5 C 71.320931 18.127181 69.432115 14.937187 67.75 12.8125 C 66.278149 10.953399 64.977414 10.290268 64.8125 10.15625 z M 99.34375 43.90625 C 86.79565 53.381359 75.792347 63.914843 66.25 75.09375 C 76.032927 77.504442 85.901575 79.871772 95.75 81.53125 C 95.830132 80.186335 96.067405 78.894893 96.5 77.625 C 97.497182 74.697786 99.510418 72.413122 101.90625 69.71875 C 104.30206 67.024383 107.11905 64.161224 109.75 61.34375 C 112.38092 58.526279 114.78037 55.725104 116.28125 53.46875 C 117.57108 51.529696 117.85422 50.140276 117.9375 49.90625 C 117.93747 49.903618 117.93766 49.878251 117.9375 49.875 C 117.73626 49.725328 116.7219 48.747109 114.5625 47.875 C 112.04974 46.860181 108.481 45.933629 104.71875 45.09375 C 102.94925 44.698729 101.13165 44.292609 99.34375 43.90625 z"/><path id="path3741" d="M 64.8125,10.15625 C 64.576492,10.314406 63.313255,10.966975 61.84375,12.71875 C 60.102119,14.794928 58.148874,17.931415 56.1875,21.25 C 54.226123,24.568584 52.253305,28.097951 50.34375,31.15625 C 48.434193,34.21455 46.808554,36.749206 44.28125,38.53125 C 41.753946,40.313295 38.771972,41.009688 35.25,41.78125 C 31.728028,42.55281 27.753292,43.204545 23.96875,43.9375 C 20.184208,44.670458 16.571749,45.463025 14.03125,46.40625 C 11.848007,47.216834 10.828455,48.199264 10.625,48.34375 C 10.62496,48.346283 10.625145,48.371753 10.625,48.375 C 10.695609,48.571986 10.868176,49.989276 12.125,52 C 13.561369,54.297967 60.733777,43.188439 78.53125,31.25 C 76.771363,28.21678 74.98888,24.755017 73.1875,21.5 C 71.320931,18.127181 69.432115,14.937187 67.75,12.8125 C 66.278149,10.953399 64.977414,10.290268 64.8125,10.15625 z M 99.34375,43.90625 C 68.470207,67.487324 85.901575,79.871772 95.75,81.53125 C 95.830132,80.186335 96.067405,78.894893 96.5,77.625 C 97.497182,74.697786 99.510418,72.413122 101.90625,69.71875 C 104.30206,67.024383 107.11905,64.161224 109.75,61.34375 C 112.38092,58.526279 114.78037,55.725104 116.28125,53.46875 C 117.57108,51.529696 117.85422,50.140276 117.9375,49.90625 C 117.93747,49.903618 117.93766,49.878251 117.9375,49.875 C 117.73626,49.725328 116.7219,48.747109 114.5625,47.875 C 112.04974,46.860181 108.481,45.933629 104.71875,45.09375 C 102.94925,44.698729 101.13165,44.292609 99.34375,43.90625 z" style="opacity:.34836066;fill:url(#linearGradient3739);fill-opacity:1;fill-rule:nonzero;stroke:none;stroke-width:6.803;stroke-linecap:round;stroke-linejoin:round;stroke-miterlimit:4;stroke-dasharray:none;stroke-dashoffset:4;stroke-opacity:1"/><path style="opacity:.35655739;fill:url(#radialGradient3753);fill-opacity:1;fill-rule:nonzero;stroke:none;stroke-width:2;stroke-linecap:round;stroke-linejoin:round;stroke-miterlimit:4;stroke-dasharray:none;stroke-dashoffset:4;stroke-opacity:.43089432" id="path3745" d="M 129.85647 -45.41592 A 124.10334 11.780229 0 1 1 -118.35021,-45.41592 A 124.10334 11.780229 0 1 1 129.85647 -45.41592 z" transform="matrix(0.126835,-5.623734e-2,-3.870485e-2,-9.211943e-2,44.81196,106.2565)"/><path id="path3755" d="M 129.85647 -45.41592 A 124.10334 11.780229 0 1 1 -118.35021,-45.41592 A 124.10334 11.780229 0 1 1 129.85647 -45.41592 z" transform="matrix(-0.126834,-5.702883e-2,3.870485e-2,-9.341592e-2,81.95911,106.3126)" style="opacity:.49590164;fill:url(#radialGradient3757);fill-opacity:1;fill-rule:nonzero;stroke:none;stroke-width:2;stroke-linecap:round;stroke-linejoin:round;stroke-miterlimit:4;stroke-dasharray:none;stroke-dashoffset:4;stroke-opacity:.43089432"/><path id="path3759" d="M 129.85647 -45.41592 A 124.10334 11.780229 0 1 1 -118.35021,-45.41592 A 124.10334 11.780229 0 1 1 129.85647 -45.41592 z" transform="matrix(-6.548665e-3,-0.135343,-9.988208e-2,2.696531e-3,91.9485,98.93228)" style="opacity:.27459016;fill:url(#radialGradient3761);fill-opacity:1;fill-rule:nonzero;stroke:none;stroke-width:2;stroke-linecap:round;stroke-linejoin:round;stroke-miterlimit:4;stroke-dasharray:none;stroke-dashoffset:4;stroke-opacity:.43089432"/><path style="opacity:.17;fill:#2e3436;fill-opacity:1;fill-rule:nonzero;stroke:none;stroke-width:14.80892944;stroke-linecap:round;stroke-linejoin:round;stroke-miterlimit:4;stroke-dasharray:none;stroke-dashoffset:4;stroke-opacity:1" id="path3308" d="M 126.314,45.945281 C 127.57715,54.014451 105.05512,70.888621 102.47025,78.476531 C 99.826558,86.237151 107.76438,114.43949 101.06401,119.16403 C 94.363618,123.88859 70.449248,106.96767 62.251508,106.85153 C 54.053768,106.73539 29.690348,122.98275 23.126508,118.07028 C 22.815738,117.8377 22.558998,117.52665 22.314008,117.19528 C 22.708398,118.50348 23.279848,119.53038 24.126508,120.16403 C 30.690348,125.0765 55.053768,108.82913 63.251508,108.94528 C 71.449248,109.06142 95.363618,126.01358 102.064,121.28903 C 108.76438,116.56449 100.82656,88.362141 103.47025,80.601531 C 106.11395,72.840911 129.61178,55.340191 127.189,47.507781 C 127.02007,46.961651 126.72727,46.430131 126.314,45.945281 z M 1.5015079,49.851531 C 4.5831579,57.838661 18.613888,70.110761 22.845258,77.320281 C 20.896748,71.159061 6.3960679,58.682221 1.5015079,49.851531 z"/><path style="opacity:.17;fill:#2e3436;fill-opacity:1;fill-rule:nonzero;stroke:none;stroke-width:14.80892944;stroke-linecap:round;stroke-linejoin:round;stroke-miterlimit:4;stroke-dasharray:none;stroke-dashoffset:4;stroke-opacity:1" id="path3303" d="M 127.1265,47.382781 C 127.77543,55.569451 105.80307,72.111371 103.2515,79.601531 C 100.60781,87.362151 108.54563,115.56449 101.84525,120.28903 C 95.144868,125.01357 71.261748,108.06142 63.064008,107.94528 C 54.866278,107.82913 30.471598,124.10775 23.907758,119.19528 C 22.913828,118.45141 22.292008,117.15904 21.907758,115.50778 C 22.250148,117.65334 22.937778,119.30561 24.126508,120.19528 C 30.690348,125.10775 55.053778,108.82913 63.251508,108.94528 C 71.449248,109.06142 95.363638,126.01357 102.064,121.28903 C 108.76438,116.56449 100.82655,88.362151 103.47025,80.601531 C 106.11395,72.840911 129.61177,55.340181 127.189,47.507781 C 127.17552,47.464201 127.14164,47.425951 127.1265,47.382781 z M 0.93900787,47.757781 C 1.9815279,56.300511 21.645828,72.265141 23.876508,79.476531 C 23.903658,79.564291 23.914628,79.665031 23.939008,79.757781 C 23.870988,79.288551 23.775168,78.856101 23.657758,78.476531 C 21.511968,71.539581 3.2557579,56.495971 0.93900787,47.757781 z"/><path style="fill:url(#radialGradient3771);fill-opacity:1;fill-rule:evenodd;stroke:none;stroke-width:1px;stroke-linecap:butt;stroke-linejoin:miter;stroke-opacity:1;opacity:.55327869" id="path3763" d="M 25.088207,80.21837 C 25.534474,90.747814 22.054583,105.95279 22.237274,111.46459 L 24.632057,111.69267 C 26.600057,101.69251 28.017156,91.508728 28.167214,80.902594 L 25.088207,80.21837 z"/><path style="opacity:.62;fill:#2e3436;fill-opacity:1;fill-rule:nonzero;stroke:none;stroke-width:14.80892944;stroke-linecap:round;stroke-linejoin:round;stroke-miterlimit:4;stroke-dasharray:none;stroke-dashoffset:4;stroke-opacity:1" id="path3296" d="M 0.89521787,47.070281 C 0.89114787,55.417331 21.603498,72.067851 23.895208,79.476531 C 24.122348,80.210811 24.248638,81.111361 24.301458,82.164031 C 24.258118,80.995191 24.141798,79.961201 23.895208,79.164031 C 21.629398,71.839061 1.3489179,55.506151 0.89521787,47.070281 z M 127.36395,48.789031 C 126.76815,57.193121 105.96742,73.013441 103.48895,80.289031 C 103.13757,81.320501 102.96318,82.732101 102.92645,84.382781 C 102.97549,82.859581 103.15849,81.571601 103.48895,80.601531 C 105.99802,73.236121 127.27213,57.108781 127.36395,48.789031 z M 63.270208,108.63278 C 55.072468,108.51664 30.709048,124.79525 24.145208,119.88278 C 22.709368,118.80818 21.987678,116.61813 21.738958,113.78903 C 21.963318,116.76637 22.658218,119.08239 24.145208,120.19528 C 30.709048,125.10775 55.072468,108.82913 63.270208,108.94528 C 71.467938,109.06142 95.382328,126.01357 102.0827,121.28903 C 103.80587,120.07399 104.52313,117.30046 104.73895,113.72653 C 104.49958,117.15646 103.75779,119.79539 102.0827,120.97653 C 95.382328,125.70107 71.467938,108.74892 63.270208,108.63278 z"/><g id="g9690" transform="matrix(0.53636009,0,0,0.53636009,63.427925,-3.5747176)"><circle id="circle3581_2_" cx="343.999" cy="92" r="36" d="m 379.99899,92 c 0,19.88225 -16.11775,36 -36,36 -19.88225,0 -36,-16.11775 -36,-36 0,-19.882251 16.11775,-36 36,-36 19.88225,0 36,16.117749 36,36 z" rx="8.001" ry="8.001" transform="matrix(-1.502244,0.402525,-0.402525,-1.502244,617.8027,63.738248)" style="fill:url(#linearGradient1976);fill-opacity:1"/><circle style="opacity:.3;fill:url(#radialGradient1978);fill-opacity:1" id="circle22111" cx="343.999" cy="92" r="36" d="m 379.99899,92 c 0,19.88225 -16.11775,36 -36,36 -19.88225,0 -36,-16.11775 -36,-36 0,-19.882251 16.11775,-36 36,-36 19.88225,0 36,16.117749 36,36 z" rx="8.001" ry="8.001" transform="matrix(-0.6676633,0.06708758,-0.1788998,-0.2503745,310.13426,104.40079)"/><path id="circle16776" d="m 64.000032,14.177736 c -24.436929,0 -44.856215,17.255767 -49.777792,40.230007 9.810036,9.145005 28.424084,15.316238 49.777792,15.316238 21.353724,0 39.967758,-6.171233 49.777788,-15.316238 C 108.85626,31.433503 88.436946,14.177736 64.000032,14.177736 z" style="opacity:.8;fill:url(#linearGradient8724);fill-opacity:1"/><path style="fill:#fff;fill-opacity:.75688076;fill-rule:nonzero;stroke:none" id="path2276-1" d="m -106.3852,44.124126 0,-2.794709 0,2.794709 z"/><path style="opacity:.8;fill:none;stroke:#9c0f0f;stroke-width:4.00000143;stroke-linecap:round;stroke-linejoin:round;stroke-miterlimit:4;stroke-opacity:1" id="path1990" d="M 30.05889,41.372576 53.078349,64.392035 30.05889,86.627424 41.372602,97.941136 64.000026,75.313712 86.62745,97.941136 97.941162,86.627424 75.313738,64 97.941162,41.372576 87.019485,30.450899 64.392061,53.078323 41.372602,30.058864 30.05889,41.372576 z"/><path id="rect3232" d="M 30.05889,41.372576 53.078349,64.392035 30.05889,86.627424 41.372602,97.941136 64.000026,75.313712 86.62745,97.941136 97.941162,86.627424 75.313738,64 97.941162,41.372576 87.019485,30.450899 64.392061,53.078323 41.372602,30.058864 30.05889,41.372576 z" style="fill:#fff;fill-opacity:1;fill-rule:evenodd;stroke:none"/></g></g></svg>